<svg xmlns="http://www.w3.org/2000/svg" xmlns:xlink="http://www.w3.org/1999/xlink" width="6912" zoomAndPan="magnify" viewBox="0 0 5184 2592.000001" height="3456" preserveAspectRatio="xMidYMid meet" version="1.0"><defs><clipPath id="2f5323c644"><path d="M 1895 646.761719 L 3175 646.761719 L 3175 1772.824219 L 1895 1772.824219 Z M 1895 646.761719 " clip-rule="nonzero"/></clipPath></defs><g clip-path="url(#2f5323c644)"><path fill="#000000" d="M 3174.101562 1451.816406 C 3174.101562 1516.292969 3159.875 1577.265625 3134.027344 1623.46875 C 3106.03125 1673.539062 3067.40625 1701.113281 3025.339844 1701.113281 L 2922.328125 1701.113281 C 2888.746094 1701.113281 2856.945312 1683.234375 2831.308594 1650.285156 C 2759.796875 1731.554688 2660.105469 1772.714844 2534.660156 1772.714844 C 2409.210938 1772.714844 2309.523438 1731.554688 2238.011719 1650.285156 C 2212.339844 1683.234375 2180.570312 1701.113281 2146.988281 1701.113281 L 2043.980469 1701.113281 C 2001.878906 1701.113281 1963.285156 1673.539062 1935.289062 1623.46875 C 1909.441406 1577.265625 1895.214844 1516.320312 1895.214844 1451.816406 C 1895.214844 1387.339844 1909.441406 1326.367188 1935.289062 1280.164062 C 1963.285156 1230.089844 2001.910156 1202.519531 2043.980469 1202.519531 L 2089.910156 1202.519531 C 2089.15625 1199.832031 2088.492188 1197.113281 2087.917969 1194.367188 C 2072.335938 1120.890625 2076.894531 1049.5 2101.144531 987.953125 C 2107.640625 971.464844 2116.304688 956.003906 2126.875 941.929688 C 2134.0625 893.277344 2141.644531 854.804688 2146.777344 830.855469 C 2163.117188 755.417969 2219.558594 702.054688 2314.59375 672.1875 C 2381.546875 651.167969 2452.636719 646.761719 2500.472656 646.761719 C 2503.191406 646.761719 2505.757812 646.761719 2508.203125 646.789062 C 2516.992188 646.882812 2525.839844 646.941406 2534.660156 646.941406 C 2543.476562 646.941406 2552.324219 646.882812 2561.082031 646.789062 C 2563.648438 646.761719 2566.367188 646.730469 2569.238281 646.730469 C 2608.253906 646.730469 2684.234375 650.023438 2754.722656 672.15625 C 2849.757812 702.023438 2906.203125 755.386719 2922.539062 830.796875 C 2927.703125 854.742188 2935.285156 893.21875 2942.441406 941.898438 C 2953.042969 955.972656 2961.679688 971.402344 2968.171875 987.890625 C 2992.421875 1049.4375 2996.980469 1120.859375 2981.398438 1194.367188 C 2980.824219 1197.082031 2980.160156 1199.773438 2979.40625 1202.460938 L 3025.339844 1202.460938 C 3067.4375 1202.460938 3106.03125 1230.03125 3134.027344 1280.101562 C 3159.875 1326.398438 3174.101562 1387.339844 3174.101562 1451.816406 Z M 3174.101562 1451.816406 " fill-opacity="1" fill-rule="nonzero"/></g><path fill="#a85cf9" d="M 2125.726562 1217.621094 L 2146.988281 1217.621094 C 2175.40625 1217.621094 2202.285156 1232.839844 2224.722656 1260.957031 C 2239.730469 1257.816406 2253.863281 1251.050781 2265.703125 1241.175781 L 2476.3125 1065.324219 C 2500.140625 1045.390625 2511.738281 1015.164062 2507.269531 984.390625 C 2502.828125 953.765625 2483.257812 928.128906 2454.871094 915.867188 C 2415.644531 898.863281 2363.972656 890.289062 2301.246094 890.289062 C 2294.089844 890.289062 2286.75 890.378906 2279.351562 890.621094 C 2211.3125 892.734375 2151.277344 934.863281 2126.421875 997.917969 C 2104.136719 1054.480469 2100 1120.5 2114.496094 1188.777344 C 2116.667969 1199.078125 2120.445312 1208.769531 2125.726562 1217.621094 Z M 2157.316406 1010.089844 C 2177.308594 959.382812 2225.628906 925.53125 2280.410156 923.808594 C 2326.886719 922.359375 2392.601562 925.109375 2441.675781 946.339844 C 2459.402344 954.007812 2471.632812 970.015625 2474.410156 989.160156 C 2477.1875 1008.429688 2469.941406 1027.363281 2455.023438 1039.804688 L 2244.414062 1215.6875 C 2233.359375 1224.898438 2219.828125 1229.699219 2206.027344 1229.699219 C 2199.414062 1229.699219 2192.710938 1228.613281 2186.21875 1226.347656 C 2166.074219 1219.371094 2151.398438 1202.761719 2146.988281 1181.894531 C 2133.851562 1119.984375 2137.445312 1060.582031 2157.316406 1010.089844 Z M 3025.339844 1229.699219 C 2958.296875 1229.699219 2903.753906 1329.328125 2903.753906 1451.816406 C 2903.753906 1574.273438 2958.296875 1673.933594 3025.339844 1673.933594 C 3092.382812 1673.933594 3146.921875 1574.273438 3146.921875 1451.816406 C 3146.921875 1329.328125 3092.382812 1229.699219 3025.339844 1229.699219 Z M 3041.585938 1578.957031 C 3032.738281 1578.957031 3024.128906 1576.359375 3015.976562 1571.253906 L 3015.824219 1571.375 L 3012.261719 1568.746094 C 3008.878906 1566.242188 3005.648438 1563.371094 3002.597656 1560.109375 C 2989.191406 1545.855469 2978.953125 1524.566406 2973.152344 1499.683594 C 2972.339844 1496.148438 2971.582031 1492.554688 2970.917969 1488.871094 C 2968.867188 1477.0625 2967.777344 1464.621094 2967.777344 1451.816406 C 2967.777344 1400.65625 2985.234375 1354.753906 3012.261719 1334.882812 L 3015.824219 1332.257812 L 3015.976562 1332.378906 C 3024.128906 1327.242188 3032.738281 1324.644531 3041.585938 1324.644531 C 3082.960938 1324.644531 3115.363281 1380.515625 3115.363281 1451.816406 C 3115.363281 1523.117188 3082.957031 1578.957031 3041.585938 1578.957031 Z M 2929.816406 1616.101562 C 2905.207031 1572.128906 2891.675781 1513.785156 2891.675781 1451.816406 C 2891.675781 1389.847656 2905.207031 1331.5 2929.816406 1287.53125 C 2944.796875 1260.773438 2962.824219 1241.234375 2982.605469 1229.699219 L 2922.328125 1229.699219 C 2855.285156 1229.699219 2800.746094 1329.328125 2800.746094 1451.816406 C 2800.746094 1574.273438 2855.285156 1673.933594 2922.328125 1673.933594 L 2982.605469 1673.933594 C 2962.824219 1662.394531 2944.796875 1642.855469 2929.816406 1616.101562 Z M 2823.695312 1293.359375 C 2778.488281 1298.039062 2742.460938 1367.316406 2742.460938 1451.816406 C 2742.460938 1536.3125 2778.488281 1605.589844 2823.695312 1610.273438 C 2801.078125 1567.027344 2788.664062 1511.097656 2788.664062 1451.816406 C 2788.664062 1392.535156 2801.078125 1336.605469 2823.695312 1293.359375 Z M 2165.5625 1451.816406 C 2165.5625 1329.328125 2111.019531 1229.699219 2043.980469 1229.699219 C 1976.9375 1229.699219 1922.394531 1329.328125 1922.394531 1451.816406 C 1922.394531 1574.273438 1976.9375 1673.933594 2043.980469 1673.933594 C 2111.019531 1673.933594 2165.5625 1574.273438 2165.5625 1451.816406 Z M 2057.054688 1568.746094 L 2053.492188 1571.375 L 2053.339844 1571.253906 C 2045.1875 1576.359375 2036.578125 1578.957031 2027.730469 1578.957031 C 1986.359375 1578.957031 1953.953125 1523.117188 1953.953125 1451.816406 C 1953.953125 1380.515625 1986.359375 1324.644531 2027.730469 1324.644531 C 2036.578125 1324.644531 2045.1875 1327.242188 2053.339844 1332.378906 L 2053.492188 1332.257812 L 2057.054688 1334.882812 C 2079.011719 1351.039062 2094.652344 1384.351562 2099.757812 1423.730469 C 2100.933594 1432.820312 2101.539062 1442.242188 2101.539062 1451.816406 C 2101.539062 1502.972656 2084.082031 1548.875 2057.054688 1568.746094 Z M 2146.988281 1229.699219 L 2086.710938 1229.699219 C 2106.492188 1241.234375 2124.550781 1260.773438 2139.5 1287.53125 C 2164.113281 1331.5 2177.640625 1389.847656 2177.640625 1451.816406 C 2177.640625 1513.785156 2164.113281 1572.128906 2139.5 1616.101562 C 2124.550781 1642.855469 2106.492188 1662.394531 2086.710938 1673.933594 L 2146.988281 1673.933594 C 2214.03125 1673.933594 2268.570312 1574.273438 2268.570312 1451.816406 C 2268.570312 1329.328125 2214.03125 1229.699219 2146.988281 1229.699219 Z M 2326.855469 1451.816406 C 2326.855469 1367.316406 2290.828125 1298.039062 2245.621094 1293.359375 C 2268.238281 1336.605469 2280.652344 1392.535156 2280.652344 1451.816406 C 2280.652344 1511.097656 2268.238281 1567.027344 2245.621094 1610.273438 C 2290.828125 1605.589844 2326.855469 1536.3125 2326.855469 1451.816406 Z M 2730.382812 1451.816406 C 2730.382812 1357.625 2774.441406 1281.007812 2828.589844 1281.007812 L 2830.644531 1281.007812 C 2832.636719 1277.714844 2834.660156 1274.546875 2836.714844 1271.496094 C 2821.792969 1267.570312 2807.8125 1260.410156 2795.882812 1250.445312 L 2585.273438 1074.59375 C 2558.183594 1051.976562 2545.015625 1017.609375 2550.089844 982.667969 C 2555.132812 947.847656 2577.390625 918.707031 2609.644531 904.753906 C 2650.382812 887.148438 2703.683594 878.207031 2768.070312 878.207031 C 2775.347656 878.207031 2782.835938 878.300781 2790.328125 878.539062 C 2837.617188 880.019531 2881.257812 899.527344 2913.390625 931.511719 C 2906.988281 890.226562 2900.523438 857.671875 2895.964844 836.59375 C 2881.859375 771.421875 2831.609375 724.824219 2746.566406 698.128906 C 2676.355469 676.054688 2600.433594 673.515625 2561.414062 673.96875 C 2543.65625 674.179688 2525.660156 674.179688 2507.902344 673.96875 C 2468.914062 673.515625 2392.992188 676.054688 2322.75 698.128906 C 2237.707031 724.824219 2187.457031 771.421875 2173.351562 836.59375 C 2168.792969 857.671875 2162.332031 890.226562 2155.957031 931.511719 C 2188.058594 899.527344 2231.699219 880.019531 2278.992188 878.539062 C 2286.480469 878.300781 2293.96875 878.207031 2301.246094 878.207031 C 2365.632812 878.207031 2418.933594 887.148438 2459.671875 904.753906 C 2491.925781 918.707031 2514.183594 947.847656 2519.226562 982.667969 C 2524.300781 1017.609375 2511.132812 1051.976562 2484.042969 1074.59375 L 2273.433594 1250.445312 C 2261.503906 1260.410156 2247.523438 1267.570312 2232.605469 1271.496094 C 2234.65625 1274.546875 2236.679688 1277.714844 2238.675781 1281.007812 L 2240.726562 1281.007812 C 2294.875 1281.007812 2338.9375 1357.625 2338.9375 1451.816406 C 2338.9375 1540.78125 2299.617188 1614.046875 2249.636719 1621.898438 C 2316.316406 1703.949219 2412.109375 1745.535156 2534.660156 1745.535156 C 2657.207031 1745.535156 2753 1703.949219 2819.679688 1621.898438 C 2769.699219 1614.046875 2730.382812 1540.785156 2730.382812 1451.816406 Z M 2027.730469 1336.726562 C 1994.300781 1336.726562 1966.035156 1389.453125 1966.035156 1451.816406 C 1966.035156 1514.207031 1994.300781 1566.875 2027.730469 1566.875 C 2032.984375 1566.875 2038.179688 1565.578125 2043.253906 1563.039062 C 2020.089844 1540.964844 2005.445312 1498.625 2005.445312 1451.816406 C 2005.445312 1405.007812 2020.089844 1362.667969 2043.253906 1340.5625 C 2038.179688 1338.054688 2032.984375 1336.726562 2027.730469 1336.726562 Z M 3041.585938 1336.726562 C 3036.332031 1336.726562 3031.136719 1338.054688 3026.0625 1340.5625 C 3049.226562 1362.667969 3063.871094 1405.007812 3063.871094 1451.816406 C 3063.871094 1498.625 3049.226562 1540.964844 3026.0625 1563.039062 C 3031.136719 1565.578125 3036.332031 1566.875 3041.585938 1566.875 C 3075.015625 1566.875 3103.28125 1514.207031 3103.28125 1451.816406 C 3103.28125 1389.453125 3075.015625 1336.726562 3041.585938 1336.726562 Z M 2789.964844 890.621094 C 2782.566406 890.378906 2775.226562 890.289062 2768.070312 890.289062 C 2705.34375 890.289062 2653.675781 898.863281 2614.445312 915.867188 C 2586.058594 928.128906 2566.488281 953.765625 2562.050781 984.390625 C 2557.578125 1015.164062 2569.175781 1045.390625 2593.003906 1065.324219 L 2803.613281 1241.175781 C 2815.453125 1251.050781 2829.554688 1257.816406 2844.59375 1260.957031 C 2867.03125 1232.839844 2893.910156 1217.621094 2922.328125 1217.621094 L 2943.589844 1217.621094 C 2948.875 1208.742188 2952.648438 1199.078125 2954.824219 1188.777344 C 2969.320312 1120.5 2965.179688 1054.480469 2942.894531 997.917969 C 2918.039062 934.863281 2858.003906 892.734375 2789.964844 890.621094 Z M 2922.328125 1181.894531 C 2917.917969 1202.761719 2903.242188 1219.371094 2883.097656 1226.347656 C 2876.605469 1228.613281 2869.902344 1229.699219 2863.289062 1229.699219 C 2849.488281 1229.699219 2835.957031 1224.898438 2824.90625 1215.6875 L 2614.292969 1039.804688 C 2599.375 1027.363281 2592.128906 1008.429688 2594.90625 989.160156 C 2597.683594 970.015625 2609.914062 954.007812 2627.640625 946.339844 C 2676.714844 925.109375 2742.429688 922.390625 2788.90625 923.808594 C 2843.6875 925.53125 2892.007812 959.382812 2911.96875 1010.089844 C 2931.871094 1060.582031 2935.464844 1119.984375 2922.328125 1181.894531 Z M 2922.328125 1181.894531 " fill-opacity="1" fill-rule="nonzero"/><path fill="#5534a5" d="M 2700.847656 1434.753906 C 2700.816406 1432.878906 2697.160156 1384.140625 2660.710938 1339.65625 C 2679.949219 1361.1875 2689.1875 1378.460938 2689.1875 1378.460938 C 2689.1875 1378.460938 2669.105469 1210.914062 2508.203125 1229.699219 C 2508.203125 1229.699219 2544.777344 1231.753906 2561.113281 1253.195312 C 2561.113281 1253.195312 2526.835938 1247.726562 2462.90625 1285.445312 C 2462.90625 1285.445312 2512.492188 1269.621094 2561.054688 1277.171875 C 2559.933594 1277.113281 2503.007812 1274.484375 2478.15625 1291.910156 C 2478.15625 1291.910156 2506.816406 1292.363281 2525.71875 1299.460938 L 2534.660156 1319.722656 L 2534.660156 1583.816406 C 2534.660156 1583.816406 2529.855469 1611.691406 2478.15625 1611.691406 C 2478.15625 1611.691406 2518.140625 1638.539062 2575.429688 1624.464844 C 2566.335938 1635.851562 2549.457031 1654.636719 2529.191406 1666.382812 C 2529.191406 1666.382812 2560.480469 1674.355469 2582.707031 1673.902344 C 2582.707031 1673.902344 2537.558594 1700.660156 2467.828125 1706.546875 C 2467.828125 1706.546875 2519.769531 1750.125 2569.539062 1750.277344 C 2569.539062 1750.277344 2605.113281 1754.261719 2641.625 1733.363281 L 2672.066406 1554.160156 C 2672.066406 1554.160156 2663.851562 1566.605469 2649.203125 1580.3125 C 2672.882812 1553.949219 2705.195312 1504.605469 2700.847656 1434.753906 Z M 2606.414062 1293.359375 C 2614.355469 1298.402344 2621.691406 1303.71875 2628.457031 1309.125 C 2610.699219 1296.078125 2588.625 1284.84375 2561.144531 1277.234375 C 2576.9375 1279.710938 2592.582031 1284.632812 2606.414062 1293.359375 Z M 2499.777344 1673.933594 C 2410.027344 1657.835938 2361.554688 1578.957031 2361.554688 1578.957031 C 2315.5625 1667.589844 2404.015625 1704.222656 2404.015625 1704.222656 C 2395.742188 1673.933594 2422.921875 1666.414062 2422.921875 1666.414062 L 2418.179688 1693.59375 C 2448.921875 1692.414062 2492.589844 1672.511719 2499.777344 1673.933594 Z M 2809.894531 1293.359375 C 2809.894531 1293.359375 2786.097656 1337.570312 2777.429688 1359.585938 L 2766.558594 1331.832031 C 2766.558594 1331.832031 2716.820312 1411.558594 2739.441406 1508.257812 C 2762.058594 1604.957031 2827.835938 1618.757812 2827.835938 1618.757812 C 2827.835938 1618.757812 2793.496094 1522.242188 2791.503906 1500.40625 C 2789.511719 1478.574219 2783.621094 1347.808594 2833.332031 1287.078125 Z M 2307.105469 1440.671875 C 2308.464844 1343.492188 2269.992188 1301.179688 2257.667969 1290.160156 C 2260.992188 1290.671875 2264.644531 1291.636719 2268.570312 1293.359375 L 2441.523438 1147.558594 C 2443.910156 1165.917969 2449.675781 1188.660156 2462.90625 1209.707031 C 2462.90625 1209.707031 2371.640625 1276.175781 2364.785156 1399.78125 L 2385.292969 1336.695312 C 2385.292969 1336.695312 2420.6875 1229.125 2534.660156 1222.058594 L 2601.761719 1235.4375 L 2612 1118.050781 C 2612 1118.050781 2551.960938 1042.464844 2554.105469 1001.03125 C 2556.25 959.597656 2569.449219 885.726562 2752.609375 884.308594 L 2844.414062 863.984375 L 2838.855469 745.058594 C 2838.855469 745.058594 2700.632812 661.800781 2544.625 668.019531 C 2544.625 668.019531 2584.820312 683.179688 2588.351562 692.632812 C 2588.351562 692.632812 2528.648438 703.261719 2492.320312 724.554688 L 2561.082031 737.539062 C 2561.082031 737.539062 2528.074219 777.25 2515.058594 807.601562 L 2659.746094 790.691406 C 2659.746094 790.691406 2622.054688 806.0625 2606.382812 816.691406 L 2659.746094 828.5 C 2659.746094 828.5 2558.605469 827.324219 2529.164062 869.875 C 2499.71875 912.425781 2509.652344 951.925781 2509.652344 951.925781 L 2546.980469 935.527344 C 2546.980469 935.527344 2528.195312 995.140625 2534.628906 1040.046875 C 2541.0625 1084.953125 2551.691406 1093.226562 2551.691406 1093.226562 C 2551.691406 1093.226562 2524.238281 1093.167969 2490.355469 1098.722656 C 2506.179688 1076.4375 2521.128906 1044.789062 2519.921875 1005.558594 C 2519.921875 1005.558594 2517.382812 1045.695312 2459.070312 1088.246094 C 2472.355469 1076.496094 2484.890625 1064.960938 2496.09375 1053.9375 C 2496.09375 1053.9375 2548.972656 963.21875 2462.90625 911.246094 C 2462.90625 911.246094 2365.058594 871.988281 2286.328125 890.410156 C 2286.328125 890.410156 2350.140625 899.5 2373.636719 915.988281 C 2373.636719 915.988281 2309.882812 910.582031 2265.1875 925.109375 C 2265.1875 925.109375 2463.085938 921.90625 2467.828125 986.894531 C 2467.828125 986.894531 2479.484375 1018.816406 2409.542969 1069.613281 L 2295.085938 1173.347656 C 2295.085938 1173.347656 2290.828125 1211.519531 2258.785156 1246.339844 C 2258.785156 1246.339844 2303.480469 1214.207031 2357.660156 1171.867188 C 2312.421875 1211.820312 2268.570312 1251.59375 2268.570312 1251.59375 L 2223.210938 1265.789062 L 2233.238281 1285.839844 C 2216.992188 1262.554688 2194.945312 1242.625 2165.5625 1228.21875 C 2165.5625 1228.21875 2123.917969 1218.40625 2086.710938 1229.699219 C 2086.710938 1229.699219 2205.484375 1242.957031 2223.210938 1378.460938 C 2223.210938 1378.460938 2205.484375 1351.765625 2186.582031 1331.832031 C 2186.582031 1331.832031 2269.265625 1566.84375 2086.710938 1673.933594 L 2073.121094 1679.640625 L 2155.957031 1679.640625 C 2155.957031 1679.640625 2208.925781 1667.5 2236.984375 1614.800781 C 2257.699219 1575.90625 2298.53125 1427.6875 2252.324219 1320.328125 C 2259.089844 1335.367188 2267.03125 1356.082031 2274.972656 1383.808594 C 2295.480469 1455.441406 2253.925781 1610.273438 2253.925781 1610.273438 C 2343.738281 1588.40625 2331.929688 1431.25 2331.929688 1431.25 Z M 2023.503906 1331.832031 C 2023.503906 1331.832031 1987.476562 1382.78125 1989.226562 1463.140625 C 1989.226562 1463.140625 1973.101562 1425.84375 1975.488281 1391.566406 C 1975.488281 1391.566406 1946.375 1441.878906 1966.035156 1506.871094 C 1985.695312 1571.859375 2032.957031 1586.988281 2061.3125 1554.191406 L 2053.039062 1336.757812 Z M 2426.453125 782.507812 L 2440.527344 834.507812 L 2462.90625 775.410156 L 2462.90625 834.507812 C 2462.90625 834.507812 2484.769531 781.328125 2508.203125 750.617188 C 2508.203125 750.617188 2355.152344 737.628906 2272.042969 777.796875 C 2272.042969 777.796875 2253.050781 832.578125 2252.746094 856.976562 C 2252.746094 856.976562 2355.96875 835.71875 2409.542969 834.539062 Z M 3017.335938 1228.25 C 3017.335938 1228.25 3042.160156 1231.542969 3055.144531 1269.382812 L 3025.339844 1260.984375 C 3025.339844 1260.984375 3043.308594 1296.257812 3036.242188 1331.863281 C 3036.242188 1331.863281 3044.816406 1329.902344 3056.171875 1334.28125 C 3044.515625 1332.648438 3031.46875 1335.488281 3017.335938 1336.757812 L 3041.585938 1543.230469 C 3041.585938 1543.230469 3084.648438 1493.519531 3081.148438 1416.964844 C 3081.148438 1416.964844 3101.289062 1474.859375 3075.257812 1547.609375 C 3075.257812 1547.609375 3119.53125 1516.109375 3103.28125 1416.964844 C 3100.957031 1402.832031 3098.359375 1391.113281 3095.460938 1381.269531 C 3100.050781 1393.199219 3103.976562 1407.9375 3106.847656 1426.175781 C 3106.847656 1426.175781 3124.875 1555.851562 3041.554688 1570.984375 C 3041.554688 1570.984375 3025.882812 1594.6875 2982.605469 1583.90625 C 2982.605469 1583.90625 2987.378906 1623.769531 3045.570312 1622.625 C 3045.570312 1622.625 2972.1875 1651.949219 2941.503906 1612.566406 C 2941.503906 1612.566406 2965.089844 1684.171875 3026.0625 1679.460938 C 3026.0625 1679.460938 3113.429688 1686.554688 3146.921875 1532.929688 C 3146.921875 1532.871094 3179.839844 1227.402344 3017.335938 1228.25 Z M 2881.921875 906.503906 C 2881.921875 906.503906 2795.824219 859.664062 2641.261719 906.171875 C 2641.261719 906.171875 2703.925781 897.867188 2742.429688 924.082031 L 2747.867188 930.210938 C 2747.867188 930.210938 2875.609375 910.128906 2913.359375 1024.734375 C 2913.359375 1024.734375 2949.660156 1227.011719 2864.859375 1224.261719 C 2864.859375 1224.261719 2814.636719 1222.058594 2726.304688 1122.792969 L 2703.988281 1114.699219 L 2747.867188 1165.738281 L 2684.023438 1141.304688 C 2684.023438 1141.304688 2782.535156 1266.148438 2844.382812 1268.898438 C 2844.382812 1268.898438 2877.875 1220.246094 2947.574219 1224.203125 C 2947.605469 1224.292969 3024.25 1026.941406 2881.921875 906.503906 Z M 2518.714844 1500.496094 L 2491.867188 1492.828125 L 2451.609375 1533.082031 C 2451.339844 1542.171875 2474.984375 1560.625 2474.984375 1560.625 Z M 2518.714844 1500.496094 " fill-opacity="1" fill-rule="nonzero"/><path fill="#fbfbfb" d="M 2606.867188 990.882812 C 2609.039062 975.933594 2618.582031 963.402344 2632.445312 957.421875 C 2679.464844 937.066406 2743.304688 934.46875 2788.546875 935.890625 C 2838.496094 937.460938 2882.554688 968.324219 2900.734375 1014.527344 C 2924.773438 1075.5 2919.308594 1137.832031 2910.519531 1179.386719 C 2906.988281 1196.085938 2895.269531 1209.375 2879.171875 1214.933594 C 2863.078125 1220.488281 2845.710938 1217.289062 2832.636719 1206.414062 L 2622.054688 1030.535156 C 2610.367188 1020.78125 2604.691406 1005.953125 2606.867188 990.882812 Z M 2462.453125 990.882812 C 2460.277344 975.933594 2450.734375 963.402344 2436.871094 957.421875 C 2396.527344 939.964844 2343.796875 935.585938 2301.066406 935.585938 C 2294 935.585938 2287.203125 935.707031 2280.773438 935.890625 C 2230.824219 937.460938 2186.761719 968.324219 2168.582031 1014.527344 C 2144.542969 1075.5 2150.007812 1137.832031 2158.796875 1179.386719 C 2162.332031 1196.085938 2174.046875 1209.375 2190.144531 1214.933594 C 2206.210938 1220.488281 2223.605469 1217.289062 2236.679688 1206.414062 L 2447.261719 1030.535156 C 2458.949219 1020.78125 2464.625 1005.953125 2462.453125 990.882812 Z M 2180.449219 914.507812 C 2238.914062 884.609375 2293.726562 878.269531 2293.726562 878.269531 C 2245.621094 877.03125 2196.96875 881.378906 2196.847656 881.410156 C 2204.367188 849.066406 2224.992188 787.941406 2277.992188 748.59375 C 2352.828125 693.027344 2519.074219 674.089844 2519.074219 674.089844 C 2364.242188 666.539062 2273.132812 704.472656 2216.566406 748.59375 C 2160.003906 792.714844 2146.386719 945.582031 2146.386719 945.582031 Z M 2132.222656 1057.804688 C 2142.457031 960.109375 2218.742188 903.757812 2218.742188 903.757812 C 2147.078125 917.136719 2118.84375 1001.089844 2118.84375 1001.089844 C 2073.152344 1086.945312 2118.84375 1223.539062 2118.84375 1223.539062 L 2151.335938 1224.292969 C 2151.335938 1224.292969 2121.984375 1155.53125 2132.222656 1057.804688 Z M 1959.207031 1277.625 C 1893.34375 1395.796875 1913.96875 1551.777344 1953.953125 1614.800781 C 1993.9375 1677.828125 2033.105469 1673.027344 2033.105469 1673.027344 C 1973.371094 1653.277344 1974.671875 1578.53125 1974.671875 1578.53125 C 1995.144531 1586.382812 2021.992188 1578.53125 2021.992188 1578.53125 C 2021.992188 1578.53125 1967.574219 1558.058594 1959.238281 1480.082031 C 1950.902344 1402.078125 1990.765625 1341.285156 1990.765625 1341.285156 C 2009.761719 1314.410156 2050.320312 1303.324219 2050.320312 1303.324219 C 2023.535156 1294.386719 1996.746094 1298.070312 1996.746094 1298.070312 C 2013.296875 1283.875 2036.910156 1281.039062 2036.910156 1281.039062 C 2055.816406 1249.027344 2082.964844 1241.355469 2082.964844 1241.355469 C 2012.390625 1191.769531 1959.207031 1277.625 1959.207031 1277.625 Z M 2429.234375 1217.621094 L 2403.230469 1205.148438 L 2312.632812 1287.078125 C 2312.632812 1287.078125 2346.152344 1330.113281 2348.296875 1370.820312 C 2348.296875 1370.820312 2361.132812 1307.855469 2382.210938 1281.066406 L 2373.636719 1256.335938 L 2392.992188 1262.648438 Z M 2278.507812 1609.394531 L 2240.910156 1618.757812 C 2320.121094 1730.253906 2417.847656 1730.859375 2417.847656 1730.859375 C 2338.753906 1712.949219 2278.507812 1609.394531 2278.507812 1609.394531 Z M 2875.519531 1622.5625 L 2899.648438 1609.394531 L 2857.792969 1602.601562 L 2877.875 1583.847656 C 2849.304688 1483.285156 2891.675781 1331.832031 2891.675781 1331.832031 L 2864.890625 1359.585938 C 2883.792969 1254.855469 2941.503906 1229.699219 2941.503906 1229.699219 C 2802.347656 1205.359375 2794.765625 1432.820312 2794.765625 1432.820312 C 2792.019531 1583.304688 2859.90625 1659.316406 2891.675781 1673.992188 C 2923.445312 1688.667969 2982.605469 1673.933594 2982.605469 1673.933594 C 2906.019531 1675.925781 2875.519531 1622.5625 2875.519531 1622.5625 Z M 2576.0625 1005.621094 C 2567.457031 953.859375 2617.796875 914.476562 2617.796875 914.476562 C 2587.355469 917.679688 2546.617188 954.613281 2555.316406 1014.953125 C 2564.011719 1075.289062 2668.804688 1128.621094 2668.804688 1128.621094 C 2668.804688 1128.621094 2584.636719 1057.410156 2576.0625 1005.621094 Z M 2392.992188 1475.371094 C 2386.136719 1384.410156 2429.234375 1324.644531 2429.234375 1324.644531 L 2437.113281 1309.125 L 2467.828125 1284.027344 L 2440.527344 1287.046875 C 2458.132812 1268.144531 2492.320312 1238.15625 2492.320312 1238.15625 C 2466.40625 1237.308594 2434.96875 1263.523438 2434.96875 1263.523438 C 2365.117188 1324.285156 2364.757812 1459.578125 2364.757812 1459.578125 C 2381.457031 1572.222656 2462.875 1604.625 2462.875 1604.625 C 2462.875 1604.625 2399.816406 1566.332031 2392.992188 1475.371094 Z M 2436.300781 1506.113281 C 2430.773438 1521.878906 2446.445312 1526.769531 2446.445312 1526.769531 L 2499.777344 1476.1875 C 2476.585938 1427.355469 2523.757812 1409.234375 2523.757812 1409.234375 L 2523.757812 1331.894531 L 2503.28125 1331.894531 C 2503.28125 1331.832031 2441.824219 1490.351562 2436.300781 1506.113281 Z M 2436.300781 1506.113281 " fill-opacity="1" fill-rule="nonzero"/><path fill="#a6a6a6" d="M 2444.242188 955.125 C 2488.394531 983.996094 2455.476562 1030.261719 2455.476562 1030.261719 C 2455.476562 1030.261719 2312.632812 1150.789062 2252.746094 1200.285156 C 2192.863281 1249.78125 2173.324219 1204.964844 2173.324219 1204.964844 C 2249.878906 1210.28125 2286.238281 1105.125 2286.238281 1105.125 L 2216.117188 1131.308594 L 2286.238281 1075.652344 L 2233.84375 1095.675781 L 2245.621094 1038.960938 L 2326.855469 1005.648438 C 2313.507812 958.175781 2272.042969 936.492188 2272.042969 936.492188 C 2364.605469 923.054688 2444.242188 955.125 2444.242188 955.125 Z M 2252.746094 978.257812 C 2226.746094 983.785156 2196.816406 1029.476562 2196.816406 1029.476562 L 2283.15625 1001.089844 C 2283.15625 1001.089844 2278.75 972.761719 2252.746094 978.257812 Z M 2747.898438 935.917969 C 2747.898438 935.917969 2771.148438 966.8125 2778.21875 1005.621094 L 2823.695312 1039.714844 C 2823.695312 1039.714844 2762.664062 1020.808594 2726.335938 1009 C 2726.335938 1009 2783.199219 1057.984375 2804.761719 1075.652344 L 2747.898438 1053.125 L 2791.535156 1097.246094 C 2791.535156 1097.246094 2750.3125 1137.679688 2707.761719 1102.136719 C 2707.761719 1102.136719 2809.746094 1212.695312 2864.890625 1224.292969 C 2864.890625 1224.292969 2915.171875 1220.488281 2918.011719 1159.304688 C 2920.847656 1098.121094 2939.574219 946.429688 2791.535156 930.0625 Z M 2753 1087.761719 L 2678.953125 1023.164062 C 2678.953125 1023.164062 2691.574219 1113.761719 2753 1087.761719 Z M 2753 1087.761719 " fill-opacity="1" fill-rule="nonzero"/><path fill="#000000" d="M 2534.660156 1583.847656 C 2603.664062 1583.847656 2659.773438 1524.625 2659.773438 1451.816406 C 2659.773438 1379.003906 2603.664062 1319.753906 2534.660156 1319.753906 C 2465.652344 1319.753906 2409.542969 1379.003906 2409.542969 1451.816406 C 2409.542969 1524.625 2465.652344 1583.847656 2534.660156 1583.847656 Z M 2488.183594 1466.25 C 2486.882812 1461.480469 2486.21875 1456.617188 2486.21875 1451.816406 C 2486.21875 1432.699219 2496.0625 1415.214844 2511.980469 1406.214844 L 2515.027344 1404.492188 L 2515.027344 1333.707031 C 2521.402344 1332.496094 2527.953125 1331.832031 2534.660156 1331.832031 C 2541.363281 1331.832031 2547.917969 1332.496094 2554.289062 1333.707031 L 2554.289062 1404.492188 L 2557.339844 1406.214844 C 2573.253906 1415.214844 2583.097656 1432.699219 2583.097656 1451.816406 C 2583.097656 1456.617188 2582.464844 1461.480469 2581.136719 1466.25 L 2580.230469 1469.601562 L 2628.789062 1518.164062 C 2621.691406 1529.457031 2612.84375 1539.425781 2602.667969 1547.578125 L 2554.226562 1499.136719 L 2550.605469 1500.496094 C 2540.15625 1504.394531 2529.164062 1504.394531 2518.714844 1500.496094 L 2515.089844 1499.136719 L 2466.648438 1547.578125 C 2456.472656 1539.425781 2447.625 1529.457031 2440.527344 1518.164062 L 2489.085938 1469.601562 Z M 2186.21875 1226.347656 C 2192.710938 1228.613281 2199.414062 1229.699219 2206.027344 1229.699219 C 2219.828125 1229.699219 2233.359375 1224.898438 2244.410156 1215.6875 L 2455.023438 1039.804688 C 2469.941406 1027.363281 2477.1875 1008.429688 2474.410156 989.160156 C 2471.632812 970.015625 2459.402344 954.007812 2441.675781 946.339844 C 2392.601562 925.109375 2326.886719 922.359375 2280.410156 923.808594 C 2225.628906 925.53125 2177.308594 959.382812 2157.316406 1010.089844 C 2137.445312 1060.582031 2133.851562 1119.984375 2146.988281 1181.894531 C 2151.398438 1202.761719 2166.074219 1219.371094 2186.21875 1226.347656 Z M 2168.582031 1014.527344 C 2186.761719 968.324219 2230.824219 937.460938 2280.773438 935.890625 C 2287.203125 935.707031 2294 935.585938 2301.066406 935.585938 C 2343.796875 935.585938 2396.527344 939.964844 2436.871094 957.421875 C 2450.734375 963.402344 2460.277344 975.933594 2462.453125 990.882812 C 2464.625 1005.953125 2458.949219 1020.78125 2447.261719 1030.535156 L 2236.679688 1206.414062 C 2223.605469 1217.289062 2206.210938 1220.488281 2190.144531 1214.933594 C 2174.046875 1209.375 2162.332031 1196.085938 2158.796875 1179.386719 C 2150.007812 1137.832031 2144.542969 1075.5 2168.582031 1014.527344 Z M 2788.90625 923.808594 C 2742.429688 922.390625 2676.714844 925.109375 2627.640625 946.339844 C 2609.914062 954.007812 2597.683594 970.015625 2594.90625 989.160156 C 2592.128906 1008.429688 2599.375 1027.363281 2614.292969 1039.804688 L 2824.90625 1215.6875 C 2835.957031 1224.898438 2849.488281 1229.699219 2863.289062 1229.699219 C 2869.902344 1229.699219 2876.605469 1228.613281 2883.097656 1226.347656 C 2903.242188 1219.371094 2917.917969 1202.761719 2922.328125 1181.894531 C 2935.464844 1119.984375 2931.871094 1060.582031 2911.96875 1010.089844 C 2892.007812 959.382812 2843.6875 925.53125 2788.90625 923.808594 Z M 2910.519531 1179.386719 C 2906.988281 1196.085938 2895.269531 1209.375 2879.171875 1214.933594 C 2863.078125 1220.488281 2845.710938 1217.289062 2832.636719 1206.414062 L 2622.054688 1030.535156 C 2610.367188 1020.78125 2604.691406 1005.953125 2606.867188 990.882812 C 2609.039062 975.933594 2618.582031 963.402344 2632.445312 957.421875 C 2679.464844 937.066406 2743.304688 934.46875 2788.546875 935.890625 C 2838.496094 937.460938 2882.554688 968.324219 2900.734375 1014.527344 C 2924.773438 1075.5 2919.308594 1137.832031 2910.519531 1179.386719 Z M 3120.859375 1287.53125 C 3095.644531 1242.441406 3061.699219 1217.621094 3025.339844 1217.621094 L 2957.359375 1217.621094 C 2961.558594 1209.34375 2964.699219 1200.527344 2966.628906 1191.285156 C 2981.609375 1120.679688 2977.292969 1052.277344 2954.128906 993.480469 C 2947.574219 976.871094 2938.757812 961.617188 2928.066406 948.03125 C 2920.757812 897.71875 2912.996094 858.308594 2907.773438 834.027344 C 2892.671875 764.296875 2839.671875 714.707031 2750.191406 686.59375 C 2678.347656 664.035156 2600.945312 661.4375 2561.265625 661.890625 C 2543.628906 662.101562 2525.71875 662.101562 2508.054688 661.890625 C 2468.339844 661.46875 2390.96875 664.035156 2319.125 686.59375 C 2229.644531 714.707031 2176.644531 764.296875 2161.542969 834.027344 C 2156.320312 858.308594 2148.558594 897.71875 2141.25 948 C 2130.558594 961.617188 2121.742188 976.871094 2115.1875 993.480469 C 2092.027344 1052.277344 2087.707031 1120.679688 2102.6875 1191.285156 C 2104.617188 1200.558594 2107.761719 1209.34375 2111.957031 1217.621094 L 2043.980469 1217.621094 C 2007.617188 1217.621094 1973.675781 1242.441406 1948.457031 1287.53125 C 1923.875 1331.5 1910.316406 1389.847656 1910.316406 1451.816406 C 1910.316406 1513.785156 1923.875 1572.128906 1948.457031 1616.101562 C 1973.675781 1661.1875 2007.617188 1686.011719 2043.980469 1686.011719 L 2146.988281 1686.011719 C 2180.78125 1686.011719 2212.402344 1664.570312 2236.953125 1625.433594 C 2306.167969 1713.132812 2406.25 1757.613281 2534.660156 1757.613281 C 2663.066406 1757.613281 2763.148438 1713.132812 2832.363281 1625.433594 C 2856.886719 1664.570312 2888.535156 1686.011719 2922.328125 1686.011719 L 3025.339844 1686.011719 C 3061.699219 1686.011719 3095.644531 1661.1875 3120.859375 1616.101562 C 3145.441406 1572.128906 3159 1513.785156 3159 1451.816406 C 3159 1389.847656 3145.441406 1331.5 3120.859375 1287.53125 Z M 2942.894531 997.917969 C 2965.179688 1054.480469 2969.320312 1120.5 2954.824219 1188.777344 C 2952.648438 1199.078125 2948.875 1208.742188 2943.589844 1217.621094 L 2922.328125 1217.621094 C 2893.910156 1217.621094 2867.035156 1232.839844 2844.59375 1260.957031 C 2829.554688 1257.816406 2815.453125 1251.050781 2803.613281 1241.175781 L 2593.003906 1065.324219 C 2569.175781 1045.390625 2557.578125 1015.164062 2562.050781 984.390625 C 2566.488281 953.765625 2586.058594 928.128906 2614.445312 915.867188 C 2653.675781 898.863281 2705.347656 890.289062 2768.070312 890.289062 C 2775.226562 890.289062 2782.566406 890.378906 2789.964844 890.621094 C 2858.003906 892.734375 2918.039062 934.863281 2942.894531 997.917969 Z M 2772.71875 1439.707031 C 2772.71875 1439.707031 2764.839844 1415.484375 2768.792969 1381.601562 C 2768.792969 1381.601562 2725.820312 1515.144531 2823.726562 1610.273438 C 2778.519531 1605.589844 2742.492188 1536.3125 2742.492188 1451.816406 C 2742.492188 1367.316406 2778.519531 1298.039062 2823.726562 1293.359375 C 2823.695312 1293.359375 2776.253906 1363.089844 2772.71875 1439.707031 Z M 2614.808594 1257.121094 C 2647.875 1279.679688 2671.191406 1314.4375 2684.054688 1359.585938 C 2653.945312 1305.4375 2598.289062 1268.988281 2534.660156 1268.988281 C 2471.058594 1268.988281 2415.371094 1305.4375 2385.292969 1359.554688 C 2398.066406 1314.648438 2421.230469 1280.011719 2454.027344 1257.453125 C 2493.796875 1230.09375 2534.265625 1229.699219 2534.660156 1229.699219 C 2534.898438 1229.699219 2544.988281 1229.789062 2559.996094 1233.234375 C 2575.003906 1236.707031 2594.9375 1243.5625 2614.808594 1257.121094 Z M 2534.660156 1281.066406 C 2623.445312 1281.066406 2695.683594 1357.683594 2695.683594 1451.816406 C 2695.683594 1545.949219 2623.445312 1622.5625 2534.660156 1622.5625 C 2445.871094 1622.5625 2373.636719 1545.949219 2373.636719 1451.816406 C 2373.636719 1357.683594 2445.871094 1281.066406 2534.660156 1281.066406 Z M 2126.421875 997.917969 C 2151.277344 934.863281 2211.3125 892.734375 2279.351562 890.621094 C 2286.75 890.378906 2294.089844 890.289062 2301.246094 890.289062 C 2363.972656 890.289062 2415.644531 898.863281 2454.871094 915.867188 C 2483.257812 928.128906 2502.828125 953.765625 2507.269531 984.390625 C 2511.738281 1015.164062 2500.140625 1045.390625 2476.3125 1065.324219 L 2265.703125 1241.175781 C 2253.863281 1251.050781 2239.730469 1257.816406 2224.722656 1260.957031 C 2202.285156 1232.839844 2175.40625 1217.621094 2146.988281 1217.621094 L 2125.726562 1217.621094 C 2120.445312 1208.769531 2116.667969 1199.078125 2114.496094 1188.777344 C 2100 1120.5 2104.136719 1054.480469 2126.421875 997.917969 Z M 1922.394531 1451.816406 C 1922.394531 1329.328125 1976.9375 1229.699219 2043.980469 1229.699219 C 2111.019531 1229.699219 2165.5625 1329.328125 2165.5625 1451.816406 C 2165.5625 1574.273438 2111.019531 1673.933594 2043.980469 1673.933594 C 1976.9375 1673.933594 1922.394531 1574.273438 1922.394531 1451.816406 Z M 2146.988281 1673.933594 L 2086.710938 1673.933594 C 2106.492188 1662.394531 2124.550781 1642.855469 2139.5 1616.101562 C 2164.113281 1572.128906 2177.640625 1513.785156 2177.640625 1451.816406 C 2177.640625 1389.847656 2164.113281 1331.5 2139.5 1287.53125 C 2124.550781 1260.773438 2106.492188 1241.234375 2086.710938 1229.699219 L 2146.988281 1229.699219 C 2214.03125 1229.699219 2268.570312 1329.328125 2268.570312 1451.816406 C 2268.570312 1574.273438 2214.03125 1673.933594 2146.988281 1673.933594 Z M 2307.105469 1479.328125 L 2292.15625 1486.726562 C 2292.15625 1486.726562 2310.941406 1361.914062 2245.621094 1293.390625 C 2290.828125 1298.070312 2326.855469 1367.347656 2326.855469 1451.847656 C 2326.855469 1523.933594 2300.613281 1584.90625 2264.855469 1604.171875 C 2276.300781 1585.960938 2297.984375 1544.347656 2307.105469 1479.328125 Z M 2249.636719 1621.898438 C 2299.617188 1614.046875 2338.9375 1540.78125 2338.9375 1451.816406 C 2338.9375 1357.625 2294.875 1281.007812 2240.726562 1281.007812 L 2238.675781 1281.007812 C 2236.679688 1277.714844 2234.65625 1274.546875 2232.605469 1271.496094 C 2247.523438 1267.570312 2261.503906 1260.410156 2273.433594 1250.445312 L 2484.042969 1074.59375 C 2511.132812 1051.976562 2524.300781 1017.609375 2519.226562 982.667969 C 2514.183594 947.847656 2491.925781 918.707031 2459.671875 904.753906 C 2418.933594 887.148438 2365.632812 878.207031 2301.246094 878.207031 C 2293.96875 878.207031 2286.480469 878.300781 2278.992188 878.539062 C 2231.699219 880.019531 2188.058594 899.527344 2155.957031 931.511719 C 2162.328125 890.226562 2168.792969 857.671875 2173.351562 836.59375 C 2187.457031 771.421875 2237.707031 724.824219 2322.75 698.128906 C 2392.992188 676.054688 2468.914062 673.515625 2507.902344 673.96875 C 2519.953125 674.121094 2532.121094 674.121094 2544.261719 674.058594 C 2592.914062 675.328125 2810.53125 687.621094 2810.53125 807.300781 C 2810.53125 807.300781 2727.8125 791.929688 2654.550781 814.398438 C 2654.550781 814.398438 2770.363281 830.945312 2810.53125 855.769531 C 2810.53125 855.769531 2701.601562 863.257812 2617.859375 901.429688 C 2615.078125 902.519531 2612.332031 903.636719 2609.644531 904.785156 C 2577.390625 918.734375 2555.132812 947.878906 2550.089844 982.699219 C 2549.183594 988.917969 2548.882812 995.109375 2549.125 1001.242188 C 2549.125 1001.210938 2549.125 1001.148438 2549.09375 1001.121094 C 2549.09375 1001.121094 2549.09375 1068.886719 2594.332031 1125.632812 C 2594.332031 1125.632812 2553.804688 1109.867188 2499.777344 1119.320312 C 2499.777344 1119.320312 2553.050781 1156.796875 2566.367188 1222.359375 C 2548.308594 1217.800781 2535.714844 1217.679688 2534.660156 1217.679688 C 2533.660156 1217.679688 2522.609375 1217.769531 2506.453125 1221.515625 C 2490.296875 1225.230469 2469.066406 1232.628906 2447.714844 1247.183594 C 2408.394531 1274.03125 2361.554688 1331.289062 2361.554688 1451.875 C 2361.554688 1552.683594 2439.199219 1634.703125 2534.660156 1634.703125 C 2577.359375 1634.703125 2616.4375 1618.273438 2646.667969 1591.125 C 2646.609375 1591.1875 2646.546875 1591.246094 2646.515625 1591.335938 C 2646.515625 1591.335938 2629.363281 1633.011719 2587.597656 1656.628906 C 2587.597656 1656.628906 2627.523438 1652.703125 2647.726562 1645.605469 C 2647.726562 1645.605469 2600.976562 1704.707031 2541.90625 1710.988281 C 2541.90625 1710.988281 2567.242188 1735.296875 2609.554688 1739.917969 C 2585.847656 1743.691406 2560.871094 1745.625 2534.6875 1745.625 C 2412.109375 1745.535156 2316.316406 1703.949219 2249.636719 1621.898438 Z M 2922.328125 1673.933594 C 2855.285156 1673.933594 2800.746094 1574.273438 2800.746094 1451.816406 C 2800.746094 1329.328125 2855.285156 1229.699219 2922.328125 1229.699219 L 2982.605469 1229.699219 C 2962.824219 1241.234375 2944.796875 1260.773438 2929.816406 1287.53125 C 2905.207031 1331.5 2891.675781 1389.847656 2891.675781 1451.816406 C 2891.675781 1513.785156 2905.207031 1572.128906 2929.816406 1616.101562 C 2944.796875 1642.855469 2962.824219 1662.394531 2982.605469 1673.933594 Z M 3025.339844 1673.933594 C 2958.296875 1673.933594 2903.753906 1574.273438 2903.753906 1451.816406 C 2903.753906 1329.328125 2958.296875 1229.699219 3025.339844 1229.699219 C 3092.382812 1229.699219 3146.921875 1329.328125 3146.921875 1451.816406 C 3146.921875 1574.273438 3092.382812 1673.933594 3025.339844 1673.933594 Z M 2057.054688 1334.882812 L 2053.492188 1332.257812 L 2053.339844 1332.378906 C 2045.1875 1327.242188 2036.578125 1324.644531 2027.730469 1324.644531 C 1986.359375 1324.644531 1953.953125 1380.515625 1953.953125 1451.816406 C 1953.953125 1523.117188 1986.359375 1578.957031 2027.730469 1578.957031 C 2036.578125 1578.957031 2045.1875 1576.359375 2053.339844 1571.253906 L 2053.492188 1571.375 L 2057.054688 1568.746094 C 2084.082031 1548.875 2101.539062 1502.972656 2101.539062 1451.816406 C 2101.539062 1442.242188 2100.933594 1432.820312 2099.757812 1423.730469 C 2094.652344 1384.351562 2079.011719 1351.039062 2057.054688 1334.882812 Z M 2043.253906 1563.039062 C 2038.179688 1565.578125 2032.984375 1566.875 2027.730469 1566.875 C 1994.300781 1566.875 1966.035156 1514.207031 1966.035156 1451.816406 C 1966.035156 1389.453125 1994.300781 1336.726562 2027.730469 1336.726562 C 2032.984375 1336.726562 2038.179688 1338.054688 2043.253906 1340.5625 C 2020.089844 1362.667969 2005.445312 1405.007812 2005.445312 1451.816406 C 2005.445312 1498.625 2020.089844 1540.964844 2043.253906 1563.039062 Z M 3041.585938 1324.644531 C 3032.738281 1324.644531 3024.128906 1327.242188 3015.976562 1332.378906 L 3015.824219 1332.257812 L 3012.261719 1334.882812 C 2985.234375 1354.753906 2967.777344 1400.65625 2967.777344 1451.816406 C 2967.777344 1464.621094 2968.867188 1477.0625 2970.917969 1488.871094 C 2971.582031 1492.554688 2972.339844 1496.148438 2973.152344 1499.683594 C 2978.953125 1524.566406 2989.191406 1545.855469 3002.597656 1560.109375 C 3005.648438 1563.371094 3008.878906 1566.242188 3012.261719 1568.746094 L 3015.824219 1571.375 L 3015.976562 1571.253906 C 3024.128906 1576.359375 3032.738281 1578.957031 3041.585938 1578.957031 C 3082.960938 1578.957031 3115.363281 1523.117188 3115.363281 1451.816406 C 3115.363281 1380.515625 3082.957031 1324.644531 3041.585938 1324.644531 Z M 3041.585938 1566.875 C 3036.332031 1566.875 3031.136719 1565.578125 3026.0625 1563.039062 C 3049.226562 1540.964844 3063.871094 1498.625 3063.871094 1451.816406 C 3063.871094 1405.007812 3049.226562 1362.667969 3026.0625 1340.5625 C 3031.136719 1338.054688 3036.332031 1336.726562 3041.585938 1336.726562 C 3075.015625 1336.726562 3103.28125 1389.453125 3103.28125 1451.816406 C 3103.28125 1514.207031 3075.015625 1566.875 3041.585938 1566.875 Z M 2534.660156 1486.695312 C 2553.894531 1486.695312 2569.539062 1471.054688 2569.539062 1451.816406 C 2569.539062 1432.578125 2553.894531 1416.933594 2534.660156 1416.933594 C 2515.421875 1416.933594 2499.777344 1432.578125 2499.777344 1451.816406 C 2499.777344 1471.054688 2515.421875 1486.695312 2534.660156 1486.695312 Z M 2594.332031 737.601562 C 2581.40625 755.328125 2557.460938 782.507812 2557.460938 782.507812 C 2654.1875 764.78125 2747.898438 767.136719 2747.898438 767.136719 L 2732.523438 737.601562 C 2659.773438 679.648438 2534.660156 718.695312 2534.660156 718.695312 C 2584.757812 721.472656 2639.179688 732.890625 2639.179688 732.890625 Z M 2529.191406 1200.285156 C 2529.191406 1200.285156 2509.109375 1153.113281 2455.476562 1131.308594 C 2455.476562 1131.28125 2465.167969 1182.679688 2529.191406 1200.285156 Z M 2672.097656 848.28125 C 2536.015625 827.019531 2534.660156 923.507812 2534.660156 923.507812 C 2569.175781 871.140625 2672.097656 848.28125 2672.097656 848.28125 Z M 2672.097656 848.28125 " fill-opacity="1" fill-rule="nonzero"/></svg>